<?xml version="1.0" standalone="no"?>
<!DOCTYPE svg PUBLIC "-//W3C//DTD SVG 20010904//EN"
 "http://www.w3.org/TR/2001/REC-SVG-20010904/DTD/svg10.dtd">
<svg version="1.0" xmlns="http://www.w3.org/2000/svg"
 width="1024.000000pt" height="1024.000000pt" viewBox="0 0 1024.000000 1024.000000"
 preserveAspectRatio="xMidYMid meet">

<g transform="translate(0.000000,1024.000000) scale(0.100000,-0.100000)"
fill="#000000" stroke="none">
<path d="M3433 8328 c-6 -13 -74 -180 -153 -373 -170 -417 -340 -833 -380
-930 -16 -38 -49 -118 -74 -177 -24 -60 -41 -110 -38 -112 6 -3 105 -2 278 3
l51 1 73 180 73 179 340 3 340 3 14 -30 c7 -16 42 -99 76 -183 l62 -154 160 1
c87 1 161 3 162 5 3 3 -100 255 -407 1001 -61 149 -141 345 -178 438 l-67 167
-161 0 c-157 0 -161 -1 -171 -22z m292 -651 c63 -153 115 -282 115 -287 0 -6
-95 -10 -240 -10 -239 0 -241 0 -230 20 6 11 58 138 116 282 108 270 114 282
120 276 2 -2 55 -129 119 -281z"/>
<path d="M6120 7543 l0 -808 155 0 155 0 0 273 0 272 164 0 164 0 121 -187
c66 -104 145 -226 174 -273 l54 -85 109 2 c60 1 142 2 183 2 71 1 73 2 60 20
-8 11 -44 64 -81 118 -36 54 -116 171 -177 260 -61 90 -112 168 -113 173 -2 6
21 22 51 34 242 104 359 354 291 620 -48 191 -177 315 -376 366 -71 18 -112
20 -506 20 l-428 0 0 -807z m860 511 c165 -76 189 -328 42 -441 -67 -51 -96
-56 -354 -60 l-238 -5 0 267 0 267 253 -4 c228 -3 256 -5 297 -24z"/>
<path d="M4998 8285 c-164 -41 -259 -144 -278 -299 -4 -33 -3 -82 2 -109 11
-61 56 -153 98 -200 l29 -34 -81 -53 c-195 -127 -271 -275 -240 -467 36 -216
229 -363 477 -363 134 0 262 47 378 137 32 25 62 42 66 37 4 -5 29 -37 55 -71
75 -100 58 -93 232 -93 85 0 154 4 154 8 0 5 -61 84 -135 176 -74 93 -135 171
-135 175 0 3 16 31 35 61 56 88 125 277 149 408 l6 33 -122 -3 -122 -3 -17
-72 c-16 -66 -67 -198 -89 -233 -7 -12 -12 -10 -28 10 -11 14 -61 74 -111 135
-50 60 -91 112 -91 115 0 3 23 19 51 35 72 42 171 142 199 200 29 59 39 182
20 248 -25 92 -118 180 -225 213 -72 22 -208 27 -277 9z m211 -234 c37 -27 55
-72 48 -121 -7 -51 -35 -90 -108 -146 l-60 -46 -27 30 c-77 83 -107 193 -66
249 47 64 148 80 213 34z m-74 -747 c77 -91 141 -172 143 -179 3 -14 -46 -53
-106 -84 -137 -70 -298 -30 -358 89 -37 72 -28 149 26 217 19 25 138 121 150
123 3 0 68 -75 145 -166z"/>
<path d="M4958 6412 l-148 -77 0 -571 c0 -441 -3 -574 -12 -586 -7 -8 -60 -46
-117 -84 -187 -122 -282 -239 -311 -381 -8 -36 -11 -122 -8 -237 4 -167 6
-186 30 -244 39 -93 86 -166 157 -244 57 -61 219 -198 235 -198 3 0 6 130 6
289 0 158 3 308 6 332 l6 45 152 89 c83 50 158 90 166 89 8 0 84 -42 168 -93
l152 -93 0 -329 c0 -181 3 -329 6 -329 17 0 147 102 206 163 114 114 189 240
214 356 16 77 19 323 4 400 -25 133 -132 264 -310 379 -52 33 -105 68 -117 77
l-23 16 0 577 0 577 -145 78 c-80 42 -151 77 -158 77 -6 0 -78 -35 -159 -78z"/>
<path d="M4487 6120 c-513 -171 -906 -559 -1084 -1070 -73 -208 -88 -309 -88
-585 0 -210 3 -254 23 -353 82 -406 289 -753 607 -1020 203 -170 416 -282 683
-356 292 -82 652 -86 946 -11 433 109 820 383 1066 752 170 254 265 537 292
861 36 448 -121 922 -425 1281 -137 161 -335 314 -532 411 -93 45 -296 119
-373 135 l-33 7 3 -91 3 -92 119 -40 c191 -64 312 -129 472 -255 266 -210 473
-557 555 -929 29 -132 36 -387 15 -530 -66 -443 -299 -831 -646 -1078 -113
-80 -319 -184 -447 -226 -182 -60 -295 -76 -533 -76 -186 0 -230 3 -325 23
-651 136 -1131 618 -1266 1272 -21 99 -24 142 -24 315 1 169 4 217 24 308 104
492 393 881 812 1091 47 24 142 62 212 85 l127 43 0 89 c0 78 -2 89 -17 89
-10 -1 -85 -23 -166 -50z"/>
<path d="M4021 5444 l-62 -57 1 -470 2 -471 -39 -26 c-78 -52 -105 -167 -62
-258 59 -121 241 -137 325 -27 24 32 29 49 32 111 4 62 1 79 -19 114 -14 25
-41 52 -66 67 l-42 24 0 521 c0 286 -2 522 -4 525 -3 2 -32 -22 -66 -53z m68
-1130 c44 -55 10 -144 -54 -144 -32 0 -85 50 -85 80 0 26 25 77 42 83 36 15
77 6 97 -19z"/>
<path d="M6140 4972 c0 -504 -1 -531 -18 -536 -37 -12 -82 -68 -98 -123 -40
-137 61 -263 202 -251 106 9 173 85 174 196 0 81 -47 157 -111 177 -18 6 -19
22 -19 484 l0 477 -57 49 c-31 28 -60 52 -65 53 -4 2 -8 -235 -8 -526z m125
-657 c35 -34 33 -78 -4 -116 -32 -32 -47 -35 -85 -18 -31 15 -50 59 -41 98 13
61 86 81 130 36z"/>
<path d="M2785 3466 c-38 -24 -122 -73 -185 -111 -63 -37 -116 -69 -118 -71
-2 -1 7 -21 20 -43 17 -31 27 -39 42 -35 18 6 115 64 191 116 22 14 41 25 43
23 2 -2 -18 -36 -44 -77 -87 -136 -94 -148 -94 -165 0 -9 9 -26 20 -38 l21
-22 122 28 c67 16 130 28 141 29 10 0 -28 -28 -85 -63 -148 -90 -149 -91 -149
-102 0 -6 13 -26 29 -45 23 -27 33 -33 44 -25 184 123 337 231 337 239 0 13
-62 116 -70 116 -6 0 -90 -25 -264 -77 -12 -4 9 35 65 118 46 68 86 128 87
132 6 12 -61 117 -73 116 -5 0 -41 -20 -80 -43z"/>
<path d="M7336 3450 c-107 -94 -113 -258 -12 -306 51 -25 93 -12 181 56 43 33
79 60 81 60 16 0 37 -17 45 -37 13 -35 -22 -93 -77 -128 -24 -15 -44 -31 -44
-34 0 -3 11 -19 24 -36 21 -26 26 -28 49 -18 14 7 45 29 68 50 107 96 105 243
-3 296 -50 25 -98 11 -167 -48 -66 -57 -87 -68 -111 -60 -48 15 -31 79 38 143
l47 43 -28 25 c-36 31 -49 30 -91 -6z"/>
<path d="M7102 3076 c-62 -20 -106 -58 -136 -118 -36 -73 -35 -137 4 -204 56
-99 143 -149 246 -142 77 5 133 40 179 114 71 113 16 263 -120 332 -54 28
-121 34 -173 18z m144 -131 c90 -69 98 -163 18 -216 -36 -23 -65 -24 -107 -3
-68 35 -107 88 -107 147 0 37 30 83 64 98 34 14 94 3 132 -26z"/>
<path d="M3083 2923 c-111 -109 -153 -171 -153 -227 0 -61 71 -151 144 -181
46 -20 106 -14 152 14 38 23 234 236 233 253 0 7 -15 25 -34 41 l-33 27 -58
-62 c-135 -146 -172 -178 -203 -178 -36 0 -91 44 -91 72 0 34 20 60 122 164
109 110 109 112 55 162 l-24 23 -110 -108z"/>
<path d="M6752 2759 c-23 -17 -42 -34 -42 -37 0 -4 50 -65 111 -137 60 -71
124 -149 142 -172 18 -23 37 -42 42 -43 6 0 27 15 49 33 l38 32 -142 170 c-78
94 -145 173 -149 178 -4 4 -26 -7 -49 -24z"/>
<path d="M3410 2531 c-69 -98 -125 -184 -125 -191 0 -15 201 -168 222 -169 10
-1 53 57 53 71 0 3 -32 27 -70 53 -42 29 -69 54 -66 62 7 17 164 242 187 269
19 20 19 21 -25 52 -24 18 -46 32 -48 32 -1 -1 -59 -81 -128 -179z"/>
<path d="M6555 2601 c-95 -43 -145 -117 -145 -214 0 -95 47 -177 128 -224 94
-55 216 -27 311 71 l45 46 -29 30 c-16 16 -34 30 -40 30 -6 0 -27 -16 -46 -36
-18 -20 -47 -43 -63 -51 -40 -21 -110 -12 -143 18 -28 26 -62 93 -63 122 -1
62 81 137 149 137 26 0 32 3 27 16 -3 9 -6 29 -6 45 0 28 -2 29 -42 29 -24 0
-61 -9 -83 -19z"/>
<path d="M3741 2509 c-13 -22 -21 -42 -20 -43 2 -2 23 -13 47 -25 24 -12 45
-28 48 -36 3 -7 -31 -82 -75 -166 -44 -83 -78 -156 -75 -161 3 -4 22 -17 43
-27 l37 -19 21 31 c11 18 49 88 84 156 35 68 68 125 75 128 7 2 35 -7 63 -21
l51 -26 20 40 c11 21 20 41 20 44 0 4 -307 166 -314 166 -1 0 -13 -18 -25 -41z"/>
<path d="M6205 2400 c-11 -4 -32 -13 -47 -19 l-28 -10 36 -78 c20 -43 63 -138
95 -212 33 -74 61 -136 63 -138 6 -6 96 31 96 40 0 10 -180 410 -189 418 -3 4
-15 3 -26 -1z"/>
<path d="M4142 2318 c-60 -137 -153 -391 -146 -398 5 -4 26 -15 47 -24 35 -14
38 -14 44 2 4 9 44 108 89 220 l81 203 -26 13 c-61 31 -68 30 -89 -16z"/>
<path d="M5984 2309 l-41 -10 -7 -62 c-3 -34 -9 -119 -12 -189 l-7 -127 -99
142 c-55 78 -103 148 -107 156 -6 10 -21 12 -60 6 -28 -4 -51 -11 -51 -16 0
-7 240 -358 286 -418 2 -2 29 3 60 11 58 14 58 14 60 53 4 70 24 348 29 408 4
31 2 57 -2 56 -4 -1 -27 -5 -49 -10z"/>
<path d="M4380 2238 c-66 -45 -85 -123 -45 -184 8 -13 39 -37 68 -54 71 -40
98 -66 90 -88 -22 -60 -87 -57 -174 10 l-37 28 -27 -36 -27 -36 27 -28 c35
-37 114 -70 179 -76 95 -9 166 54 166 147 0 42 -5 55 -34 87 -19 21 -58 49
-86 62 -54 25 -73 58 -50 85 18 22 60 18 119 -12 l54 -26 18 24 c10 13 19 32
19 41 0 27 -94 70 -165 75 -51 4 -65 1 -95 -19z"/>
<path d="M4765 2190 c-5 -8 -47 -451 -43 -455 3 -3 257 -25 289 -25 16 0 19 8
19 44 l0 43 -46 7 c-26 3 -68 6 -95 6 -26 0 -51 5 -54 11 -4 6 -4 30 0 54 l6
44 87 -2 87 -2 3 43 3 42 -59 0 c-33 0 -72 3 -88 6 -27 5 -29 8 -26 49 l4 44
51 -5 c29 -2 73 -6 99 -9 l46 -4 7 40 c4 22 5 43 2 46 -8 7 -288 30 -292 23z"/>
<path d="M5218 2173 c-36 -4 -38 -6 -38 -41 0 -20 4 -77 9 -127 5 -49 13 -136
16 -193 l7 -103 51 3 50 3 -2 83 -2 82 29 0 c25 0 36 -10 78 -72 27 -40 52
-75 56 -78 10 -8 108 1 108 10 0 4 -25 41 -55 83 -54 73 -65 97 -46 97 19 0
51 59 57 103 8 56 -16 109 -61 137 -27 17 -48 20 -126 18 -52 -1 -111 -3 -131
-5z m200 -101 c34 -43 4 -92 -64 -102 -59 -9 -64 -4 -64 67 l0 52 38 3 c50 4
75 -1 90 -20z"/>
</g>
</svg>
